<mxfile host="app.diagrams.net" modified="2024-03-25T13:24:24.500Z" agent="Mozilla/5.0 (Windows NT 10.0; Win64; x64) AppleWebKit/537.36 (KHTML, like Gecko) Chrome/122.0.0.0 Safari/537.36" etag="S_WVPqeYjzsAFkbaRm9a" version="24.1.0" type="device">
  <diagram id="C5RBs43oDa-KdzZeNtuy" name="Page-1">
    <mxGraphModel dx="1500" dy="746" grid="1" gridSize="10" guides="1" tooltips="1" connect="1" arrows="1" fold="1" page="1" pageScale="1" pageWidth="827" pageHeight="1169" math="0" shadow="0">
      <root>
        <mxCell id="WIyWlLk6GJQsqaUBKTNV-0" />
        <mxCell id="WIyWlLk6GJQsqaUBKTNV-1" parent="WIyWlLk6GJQsqaUBKTNV-0" />
        <mxCell id="k2fpr-Hs-RvKawznicm0-2" style="edgeStyle=orthogonalEdgeStyle;rounded=0;orthogonalLoop=1;jettySize=auto;html=1;entryX=0.5;entryY=0;entryDx=0;entryDy=0;" parent="WIyWlLk6GJQsqaUBKTNV-1" source="k2fpr-Hs-RvKawznicm0-0" target="k2fpr-Hs-RvKawznicm0-1" edge="1">
          <mxGeometry relative="1" as="geometry" />
        </mxCell>
        <mxCell id="k2fpr-Hs-RvKawznicm0-0" value="Початок" style="rounded=1;whiteSpace=wrap;html=1;arcSize=50;" parent="WIyWlLk6GJQsqaUBKTNV-1" vertex="1">
          <mxGeometry x="320" y="40" width="120" height="60" as="geometry" />
        </mxCell>
        <mxCell id="k2fpr-Hs-RvKawznicm0-4" value="" style="edgeStyle=orthogonalEdgeStyle;rounded=0;orthogonalLoop=1;jettySize=auto;html=1;" parent="WIyWlLk6GJQsqaUBKTNV-1" source="k2fpr-Hs-RvKawznicm0-1" target="k2fpr-Hs-RvKawznicm0-3" edge="1">
          <mxGeometry relative="1" as="geometry" />
        </mxCell>
        <mxCell id="k2fpr-Hs-RvKawznicm0-1" value="Ввід меж для x, y" style="shape=parallelogram;perimeter=parallelogramPerimeter;whiteSpace=wrap;html=1;fixedSize=1;" parent="WIyWlLk6GJQsqaUBKTNV-1" vertex="1">
          <mxGeometry x="320" y="130" width="120" height="60" as="geometry" />
        </mxCell>
        <mxCell id="k2fpr-Hs-RvKawznicm0-6" value="" style="edgeStyle=orthogonalEdgeStyle;rounded=0;orthogonalLoop=1;jettySize=auto;html=1;entryX=0.5;entryY=0;entryDx=0;entryDy=0;" parent="WIyWlLk6GJQsqaUBKTNV-1" source="k2fpr-Hs-RvKawznicm0-3" target="780ZuljaaLuXeC4_qg39-0" edge="1">
          <mxGeometry relative="1" as="geometry">
            <mxPoint x="380" y="310" as="targetPoint" />
          </mxGeometry>
        </mxCell>
        <mxCell id="k2fpr-Hs-RvKawznicm0-3" value="x = a&lt;div&gt;hx = (b-a)/7&lt;/div&gt;&lt;div&gt;y=c&lt;/div&gt;&lt;div&gt;hy = (d-c)/7&lt;/div&gt;" style="whiteSpace=wrap;html=1;" parent="WIyWlLk6GJQsqaUBKTNV-1" vertex="1">
          <mxGeometry x="320" y="220" width="120" height="60" as="geometry" />
        </mxCell>
        <mxCell id="k2fpr-Hs-RvKawznicm0-8" value="" style="edgeStyle=orthogonalEdgeStyle;rounded=0;orthogonalLoop=1;jettySize=auto;html=1;exitX=0.5;exitY=1;exitDx=0;exitDy=0;" parent="WIyWlLk6GJQsqaUBKTNV-1" source="780ZuljaaLuXeC4_qg39-0" edge="1">
          <mxGeometry relative="1" as="geometry">
            <mxPoint x="380.0344827586207" y="400" as="targetPoint" />
            <mxPoint x="380" y="370" as="sourcePoint" />
          </mxGeometry>
        </mxCell>
        <mxCell id="F1FSdo6Vh20H0J05NTI9-2" value="" style="edgeStyle=orthogonalEdgeStyle;rounded=0;orthogonalLoop=1;jettySize=auto;html=1;entryX=0.5;entryY=0;entryDx=0;entryDy=0;exitX=1;exitY=0.5;exitDx=0;exitDy=0;" parent="WIyWlLk6GJQsqaUBKTNV-1" source="780ZuljaaLuXeC4_qg39-0" edge="1">
          <mxGeometry relative="1" as="geometry">
            <Array as="points">
              <mxPoint x="480" y="335" />
              <mxPoint x="480" y="490" />
              <mxPoint x="380" y="490" />
            </Array>
            <mxPoint x="440" y="340" as="sourcePoint" />
            <mxPoint x="380" y="510" as="targetPoint" />
          </mxGeometry>
        </mxCell>
        <mxCell id="k2fpr-Hs-RvKawznicm0-9" style="edgeStyle=orthogonalEdgeStyle;rounded=0;orthogonalLoop=1;jettySize=auto;html=1;" parent="WIyWlLk6GJQsqaUBKTNV-1" edge="1">
          <mxGeometry relative="1" as="geometry">
            <mxPoint x="380" y="290" as="targetPoint" />
            <Array as="points">
              <mxPoint x="300" y="430" />
              <mxPoint x="300" y="290" />
              <mxPoint x="320" y="290" />
            </Array>
            <mxPoint x="320" y="430.0344827586207" as="sourcePoint" />
          </mxGeometry>
        </mxCell>
        <mxCell id="k2fpr-Hs-RvKawznicm0-13" value="Кінець" style="rounded=1;whiteSpace=wrap;html=1;arcSize=50;" parent="WIyWlLk6GJQsqaUBKTNV-1" vertex="1">
          <mxGeometry x="320" y="960" width="120" height="60" as="geometry" />
        </mxCell>
        <mxCell id="k2fpr-Hs-RvKawznicm0-15" value="ТАК" style="text;html=1;align=center;verticalAlign=middle;whiteSpace=wrap;rounded=0;" parent="WIyWlLk6GJQsqaUBKTNV-1" vertex="1">
          <mxGeometry x="420" y="310" width="60" height="30" as="geometry" />
        </mxCell>
        <mxCell id="k2fpr-Hs-RvKawznicm0-16" value="НІ" style="text;html=1;align=center;verticalAlign=middle;whiteSpace=wrap;rounded=0;" parent="WIyWlLk6GJQsqaUBKTNV-1" vertex="1">
          <mxGeometry x="370" y="360" width="60" height="30" as="geometry" />
        </mxCell>
        <mxCell id="F1FSdo6Vh20H0J05NTI9-0" value="Вивід x+hx*i" style="shape=parallelogram;perimeter=parallelogramPerimeter;whiteSpace=wrap;html=1;fixedSize=1;" parent="WIyWlLk6GJQsqaUBKTNV-1" vertex="1">
          <mxGeometry x="310" y="400" width="120" height="60" as="geometry" />
        </mxCell>
        <mxCell id="F1FSdo6Vh20H0J05NTI9-14" value="" style="edgeStyle=orthogonalEdgeStyle;rounded=0;orthogonalLoop=1;jettySize=auto;html=1;entryX=0.5;entryY=0;entryDx=0;entryDy=0;exitX=0.5;exitY=1;exitDx=0;exitDy=0;" parent="WIyWlLk6GJQsqaUBKTNV-1" source="780ZuljaaLuXeC4_qg39-3" target="F1FSdo6Vh20H0J05NTI9-13" edge="1">
          <mxGeometry relative="1" as="geometry">
            <mxPoint x="380" y="570" as="sourcePoint" />
          </mxGeometry>
        </mxCell>
        <mxCell id="F1FSdo6Vh20H0J05NTI9-19" style="edgeStyle=orthogonalEdgeStyle;rounded=0;orthogonalLoop=1;jettySize=auto;html=1;entryX=0.5;entryY=0;entryDx=0;entryDy=0;exitX=1;exitY=0.5;exitDx=0;exitDy=0;" parent="WIyWlLk6GJQsqaUBKTNV-1" source="780ZuljaaLuXeC4_qg39-3" target="k2fpr-Hs-RvKawznicm0-13" edge="1">
          <mxGeometry relative="1" as="geometry">
            <Array as="points">
              <mxPoint x="510" y="535" />
              <mxPoint x="510" y="940" />
              <mxPoint x="380" y="940" />
            </Array>
            <mxPoint x="440" y="540" as="sourcePoint" />
          </mxGeometry>
        </mxCell>
        <mxCell id="F1FSdo6Vh20H0J05NTI9-8" value="" style="edgeStyle=orthogonalEdgeStyle;rounded=0;orthogonalLoop=1;jettySize=auto;html=1;entryX=0.5;entryY=0;entryDx=0;entryDy=0;exitX=0.5;exitY=1;exitDx=0;exitDy=0;" parent="WIyWlLk6GJQsqaUBKTNV-1" source="780ZuljaaLuXeC4_qg39-4" target="F1FSdo6Vh20H0J05NTI9-7" edge="1">
          <mxGeometry relative="1" as="geometry">
            <mxPoint x="380" y="730" as="sourcePoint" />
            <Array as="points" />
          </mxGeometry>
        </mxCell>
        <mxCell id="F1FSdo6Vh20H0J05NTI9-17" value="" style="edgeStyle=orthogonalEdgeStyle;rounded=0;orthogonalLoop=1;jettySize=auto;html=1;exitX=0;exitY=0.5;exitDx=0;exitDy=0;" parent="WIyWlLk6GJQsqaUBKTNV-1" source="780ZuljaaLuXeC4_qg39-4" target="F1FSdo6Vh20H0J05NTI9-16" edge="1">
          <mxGeometry relative="1" as="geometry">
            <mxPoint x="320" y="700" as="sourcePoint" />
          </mxGeometry>
        </mxCell>
        <mxCell id="F1FSdo6Vh20H0J05NTI9-10" value="" style="edgeStyle=orthogonalEdgeStyle;rounded=0;orthogonalLoop=1;jettySize=auto;html=1;" parent="WIyWlLk6GJQsqaUBKTNV-1" source="F1FSdo6Vh20H0J05NTI9-7" target="F1FSdo6Vh20H0J05NTI9-9" edge="1">
          <mxGeometry relative="1" as="geometry" />
        </mxCell>
        <mxCell id="F1FSdo6Vh20H0J05NTI9-7" value="u = x*y+3*y*y*y*x&lt;div&gt;x +=hx&lt;/div&gt;" style="whiteSpace=wrap;html=1;" parent="WIyWlLk6GJQsqaUBKTNV-1" vertex="1">
          <mxGeometry x="320" y="750" width="120" height="60" as="geometry" />
        </mxCell>
        <mxCell id="F1FSdo6Vh20H0J05NTI9-11" style="edgeStyle=orthogonalEdgeStyle;rounded=0;orthogonalLoop=1;jettySize=auto;html=1;entryX=1;entryY=0.5;entryDx=0;entryDy=0;" parent="WIyWlLk6GJQsqaUBKTNV-1" source="F1FSdo6Vh20H0J05NTI9-9" target="780ZuljaaLuXeC4_qg39-4" edge="1">
          <mxGeometry relative="1" as="geometry">
            <Array as="points">
              <mxPoint x="380" y="910" />
              <mxPoint x="460" y="910" />
              <mxPoint x="460" y="695" />
            </Array>
            <mxPoint x="440" y="700" as="targetPoint" />
          </mxGeometry>
        </mxCell>
        <mxCell id="F1FSdo6Vh20H0J05NTI9-9" value="Вивід u" style="shape=parallelogram;perimeter=parallelogramPerimeter;whiteSpace=wrap;html=1;fixedSize=1;" parent="WIyWlLk6GJQsqaUBKTNV-1" vertex="1">
          <mxGeometry x="320" y="830" width="120" height="60" as="geometry" />
        </mxCell>
        <mxCell id="F1FSdo6Vh20H0J05NTI9-15" style="edgeStyle=orthogonalEdgeStyle;rounded=0;orthogonalLoop=1;jettySize=auto;html=1;entryX=0.5;entryY=0;entryDx=0;entryDy=0;" parent="WIyWlLk6GJQsqaUBKTNV-1" source="F1FSdo6Vh20H0J05NTI9-13" edge="1">
          <mxGeometry relative="1" as="geometry">
            <mxPoint x="380" y="670" as="targetPoint" />
          </mxGeometry>
        </mxCell>
        <mxCell id="F1FSdo6Vh20H0J05NTI9-13" value="x = a" style="whiteSpace=wrap;html=1;" parent="WIyWlLk6GJQsqaUBKTNV-1" vertex="1">
          <mxGeometry x="320" y="590" width="120" height="60" as="geometry" />
        </mxCell>
        <mxCell id="F1FSdo6Vh20H0J05NTI9-18" style="edgeStyle=orthogonalEdgeStyle;rounded=0;orthogonalLoop=1;jettySize=auto;html=1;entryX=0;entryY=0.5;entryDx=0;entryDy=0;exitX=0.5;exitY=0;exitDx=0;exitDy=0;" parent="WIyWlLk6GJQsqaUBKTNV-1" source="F1FSdo6Vh20H0J05NTI9-16" target="780ZuljaaLuXeC4_qg39-3" edge="1">
          <mxGeometry relative="1" as="geometry">
            <Array as="points">
              <mxPoint x="250" y="535" />
            </Array>
            <mxPoint x="320" y="540" as="targetPoint" />
          </mxGeometry>
        </mxCell>
        <mxCell id="F1FSdo6Vh20H0J05NTI9-16" value="y += hy" style="whiteSpace=wrap;html=1;" parent="WIyWlLk6GJQsqaUBKTNV-1" vertex="1">
          <mxGeometry x="190" y="590" width="120" height="60" as="geometry" />
        </mxCell>
        <mxCell id="F1FSdo6Vh20H0J05NTI9-20" value="ТАК" style="text;html=1;align=center;verticalAlign=middle;whiteSpace=wrap;rounded=0;" parent="WIyWlLk6GJQsqaUBKTNV-1" vertex="1">
          <mxGeometry x="420" y="510" width="60" height="30" as="geometry" />
        </mxCell>
        <mxCell id="F1FSdo6Vh20H0J05NTI9-21" value="ТАК" style="text;html=1;align=center;verticalAlign=middle;whiteSpace=wrap;rounded=0;" parent="WIyWlLk6GJQsqaUBKTNV-1" vertex="1">
          <mxGeometry x="280" y="670" width="60" height="30" as="geometry" />
        </mxCell>
        <mxCell id="F1FSdo6Vh20H0J05NTI9-22" value="НІ" style="text;html=1;align=center;verticalAlign=middle;whiteSpace=wrap;rounded=0;" parent="WIyWlLk6GJQsqaUBKTNV-1" vertex="1">
          <mxGeometry x="360" y="560" width="60" height="30" as="geometry" />
        </mxCell>
        <mxCell id="F1FSdo6Vh20H0J05NTI9-23" value="НІ" style="text;html=1;align=center;verticalAlign=middle;whiteSpace=wrap;rounded=0;" parent="WIyWlLk6GJQsqaUBKTNV-1" vertex="1">
          <mxGeometry x="360" y="720" width="60" height="30" as="geometry" />
        </mxCell>
        <mxCell id="780ZuljaaLuXeC4_qg39-0" value="i++&lt;div&gt;i = 0 ....7&lt;/div&gt;" style="shape=hexagon;perimeter=hexagonPerimeter2;whiteSpace=wrap;html=1;fixedSize=1;" vertex="1" parent="WIyWlLk6GJQsqaUBKTNV-1">
          <mxGeometry x="320" y="310" width="120" height="50" as="geometry" />
        </mxCell>
        <mxCell id="780ZuljaaLuXeC4_qg39-3" value="i++&lt;div&gt;i = 0 ....7&lt;/div&gt;" style="shape=hexagon;perimeter=hexagonPerimeter2;whiteSpace=wrap;html=1;fixedSize=1;" vertex="1" parent="WIyWlLk6GJQsqaUBKTNV-1">
          <mxGeometry x="320" y="510" width="120" height="50" as="geometry" />
        </mxCell>
        <mxCell id="780ZuljaaLuXeC4_qg39-4" value="j++&lt;br&gt;j = 0 ... 7" style="shape=hexagon;perimeter=hexagonPerimeter2;whiteSpace=wrap;html=1;fixedSize=1;" vertex="1" parent="WIyWlLk6GJQsqaUBKTNV-1">
          <mxGeometry x="320" y="670" width="120" height="50" as="geometry" />
        </mxCell>
      </root>
    </mxGraphModel>
  </diagram>
</mxfile>
